# xmcd
#
# Track frame offsets:
#	150
#	12540
#	28178
#	40839
#	55605
#	70427
#	82297
#	95529
#	110356
#	123671
#	139416
#	155317
#	173210
#	186214
#	208426
#	221331
#
# Disc length: 3160 seconds
#
# Revision: 1
# Processed by: cddbd v1.5.2PL0 Copyright (c) Steve Scherf et al.
# Submitted via: audiograbber 1.83.01
#
DISCID=f20c5610
DTITLE=Merle Haggard - 504903
DYEAR=1900
DGENRE=
TTITLE0=Merle Haggard - Today I Started Loving You Again
TTITLE1=Merle Haggard - Silver Wings
TTITLE2=Merle Haggard - Every Fool Has A Rainbow
TTITLE3=Merle Haggard - Thats The Way Love Goes
TTITLE4=Merle Haggard - Farmers Daughter
TTITLE5=Merle Haggard - Old Man From The Mountain
TTITLE6=Merle Haggard - Lets Chase Each Other Around The Room
TTITLE7=Merle Haggard - Natural High
TTITLE8=Merle Haggard - You Take Me For Granted
TTITLE9=Merle Haggard - Someday When Things Are Good
TTITLE10=Merle Haggard - Twinkle Twinkle Lucky Star
TTITLE11=Merle Haggard - We Never Touch At All
TTITLE12=Merle Haggard - A Better Love Next Time
TTITLE13=Merle Haggard - Motorcycle Cowboy
TTITLE14=Merle Haggard - Think About A Lullaby
TTITLE15=Merle Haggard - When It Rains It Pours
EXTD=
EXTT0=
EXTT1=
EXTT2=
EXTT3=
EXTT4=
EXTT5=
EXTT6=
EXTT7=
EXTT8=
EXTT9=
EXTT10=
EXTT11=
EXTT12=
EXTT13=
EXTT14=
EXTT15=
PLAYORDER=
